<svg width="737" height="160" viewBox="0 0 737 160" fill="none" xmlns="http://www.w3.org/2000/svg">
<path d="M698.539 74.8444C697.589 74.8444 697.113 74.4921 697.113 73.7873C697.113 73.2107 697.525 72.8263 698.349 72.6341L700.536 72.2497C701.867 71.9934 702.722 71.6411 703.103 71.1926C703.546 70.7441 703.768 69.8472 703.768 68.5017V11.9941C703.768 10.6486 703.546 9.7517 703.103 9.30322C702.722 8.85475 701.867 8.50238 700.536 8.24611L698.349 7.8617C697.525 7.6695 697.113 7.28509 697.113 6.70848C697.113 6.00374 697.589 5.65137 698.539 5.65137H715.937C716.888 5.65137 717.363 6.03577 717.363 6.80459C717.363 7.38119 717.015 7.73356 716.317 7.8617L713.751 8.24611C712.42 8.43831 711.532 8.79068 711.089 9.30322C710.708 9.81576 710.518 10.7447 710.518 12.0902V65.907C710.518 68.2134 711.152 69.8792 712.42 70.9043C713.751 71.9294 715.398 72.4419 717.363 72.4419C718.821 72.4419 720.31 72.1536 721.832 71.577C723.416 70.9363 724.842 69.7831 726.11 68.1173C727.377 66.3875 728.328 63.8889 728.962 60.6214L730.198 54.1826C730.388 53.3497 730.863 52.9333 731.624 52.9333C732.511 52.9333 732.891 53.4779 732.765 54.567L731.624 72.6341C731.497 74.1077 730.705 74.8444 729.247 74.8444H698.539Z" fill="#2B30A3"/>
<path d="M650.393 74.8445C649.442 74.8445 648.967 74.5242 648.967 73.8835C648.967 73.2428 649.41 72.8264 650.298 72.6342L651.724 72.3459C652.991 72.0896 653.942 71.481 654.576 70.5199C655.21 69.4949 655.749 68.0854 656.192 66.2915L670.928 6.22805C671.055 5.58737 671.245 5.17093 671.498 4.97873C671.815 4.78653 672.101 4.69043 672.354 4.69043C672.671 4.69043 672.956 4.78653 673.21 4.97873C673.527 5.17093 673.748 5.58737 673.875 6.22805L688.896 67.1564C689.34 68.9503 689.847 70.1996 690.417 70.9044C690.988 71.6091 691.875 72.0896 693.079 72.3459L694.506 72.6342C695.393 72.8264 695.836 73.2428 695.836 73.8835C695.836 74.5242 695.361 74.8445 694.41 74.8445H678.153C677.266 74.8445 676.822 74.4921 676.822 73.7874C676.822 73.0826 677.361 72.6982 678.439 72.6342L680.245 72.442C681.322 72.3138 681.988 71.9615 682.241 71.3849C682.558 70.8083 682.558 69.8152 682.241 68.4057L678.629 53.51C678.248 51.8442 677.203 51.0113 675.491 51.0113H665.509C663.861 51.0113 662.815 51.8442 662.372 53.51L659.139 66.3876C658.189 70.0394 659.139 72.0576 661.991 72.442L663.417 72.6342C664.495 72.8264 665.034 73.2108 665.034 73.7874C665.034 74.4921 664.59 74.8445 663.703 74.8445H650.393ZM665.224 48.1283H675.682C676.696 48.1283 677.108 47.5837 676.918 46.4946L670.833 20.7394H670.358L663.988 46.4946C663.798 47.5837 664.21 48.1283 665.224 48.1283Z" fill="#2B30A3"/>
<path d="M641.979 75.7094C640.965 75.7094 640.109 74.9406 639.412 73.4029L613.648 16.8952C613.458 16.4468 613.204 16.2546 612.887 16.3186C612.634 16.3827 612.507 16.671 612.507 17.1835V66.5797C612.507 68.3736 612.792 69.7511 613.363 70.7121C613.997 71.609 615.106 72.1856 616.69 72.4419L617.926 72.6341C618.75 72.6982 619.162 73.0826 619.162 73.7873C619.162 74.4921 618.687 74.8444 617.736 74.8444H604.141C603.19 74.8444 602.715 74.4921 602.715 73.7873C602.715 73.0826 603.127 72.6982 603.951 72.6341L605.187 72.4419C606.835 72.1856 607.975 71.609 608.609 70.7121C609.243 69.7511 609.56 68.3736 609.56 66.5797V11.9941C609.56 10.6486 609.338 9.7517 608.894 9.30322C608.514 8.85475 607.595 8.50238 606.137 8.24611L603.951 7.8617C603.127 7.6695 602.715 7.28509 602.715 6.70848C602.715 6.00374 603.19 5.65137 604.141 5.65137H614.313C615.898 5.65137 617.007 6.35611 617.641 7.7656L640.078 57.6423C640.268 58.0267 640.489 58.1869 640.743 58.1228C641.06 58.0587 641.218 57.8345 641.218 57.4501V13.9161C641.218 11.8659 640.87 10.4564 640.173 9.68763C639.475 8.85475 638.588 8.34221 637.511 8.15001L635.799 7.8617C634.975 7.6695 634.563 7.28509 634.563 6.70848C634.563 6.00374 635.039 5.65137 635.989 5.65137H649.585C650.535 5.65137 651.011 6.00374 651.011 6.70848C651.011 7.41323 650.599 7.79763 649.775 7.8617L648.539 8.0539C646.891 8.31017 645.75 8.85475 645.116 9.68763C644.482 10.4564 644.166 11.8659 644.166 13.9161V72.6341C644.166 73.7873 643.944 74.5882 643.5 75.0367C643.12 75.4851 642.613 75.7094 641.979 75.7094Z" fill="#2B30A3"/>
<path d="M576.263 75.7094C573.22 75.7094 570.368 74.8125 567.706 73.0186C565.044 71.1606 562.699 68.63 560.671 65.4266C558.706 62.2232 557.154 58.4752 556.013 54.1827C554.935 49.8261 554.396 45.1492 554.396 40.1519C554.396 35.1546 554.935 30.5097 556.013 26.2172C557.154 21.9246 558.706 18.1767 560.671 14.9733C562.699 11.7058 565.044 9.17517 567.706 7.38127C570.368 5.58738 573.22 4.69043 576.263 4.69043C579.305 4.69043 582.125 5.58738 584.724 7.38127C587.386 9.17517 589.731 11.7058 591.759 14.9733C593.787 18.1767 595.34 21.9246 596.418 26.2172C597.558 30.5097 598.129 35.1546 598.129 40.1519C598.129 45.1492 597.558 49.8261 596.418 54.1827C595.34 58.4752 593.787 62.2232 591.759 65.4266C589.731 68.63 587.386 71.1606 584.724 73.0186C582.125 74.8125 579.305 75.7094 576.263 75.7094ZM576.263 73.1147C580.763 73.1147 584.28 70.3918 586.815 64.9461C589.351 59.5003 590.618 51.2356 590.618 40.1519C590.618 29.0682 589.351 20.8355 586.815 15.4538C584.28 10.008 580.763 7.28517 576.263 7.28517C571.826 7.28517 568.308 10.008 565.71 15.4538C563.175 20.8355 561.907 29.0682 561.907 40.1519C561.907 51.2356 563.175 59.5003 565.71 64.9461C568.308 70.3918 571.826 73.1147 576.263 73.1147Z" fill="#2B30A3"/>
<path d="M530.153 74.8444C529.202 74.8444 528.727 74.4921 528.727 73.7873C528.727 73.2107 529.139 72.8263 529.962 72.6341L532.149 72.2497C533.48 71.9934 534.336 71.6411 534.716 71.1926C535.16 70.7441 535.381 69.8472 535.381 68.5017V11.9941C535.381 10.6486 535.16 9.7517 534.716 9.30322C534.336 8.85475 533.48 8.50238 532.149 8.24611L529.962 7.8617C529.139 7.6695 528.727 7.28509 528.727 6.70848C528.727 6.00374 529.202 5.65137 530.153 5.65137H547.36C548.311 5.65137 548.786 6.00374 548.786 6.70848C548.786 7.28509 548.374 7.6695 547.55 7.8617L545.364 8.24611C544.033 8.50238 543.146 8.85475 542.702 9.30322C542.322 9.7517 542.131 10.6486 542.131 11.9941V68.5017C542.131 69.8472 542.322 70.7441 542.702 71.1926C543.146 71.6411 544.033 71.9934 545.364 72.2497L547.55 72.6341C548.374 72.8263 548.786 73.2107 548.786 73.7873C548.786 74.4921 548.311 74.8444 547.36 74.8444H530.153Z" fill="#2B30A3"/>
<path d="M494.317 74.8446C493.366 74.8446 492.891 74.4922 492.891 73.7874C492.891 73.0827 493.303 72.6983 494.126 72.6342L498.405 71.9615C499.672 71.7693 500.528 71.449 500.972 71.0005C501.415 70.488 501.637 69.559 501.637 68.2135V10.5527C501.637 9.65571 501.447 9.01503 501.067 8.63063C500.686 8.24622 499.894 8.05402 498.69 8.05402C496.345 8.05402 494.031 9.0791 491.75 11.1293C489.468 13.1794 487.979 16.4789 487.281 21.0277L486.806 24.1991C486.679 25.0319 486.236 25.4484 485.475 25.4484C484.524 25.4484 484.112 24.9038 484.239 23.8147L485.095 6.4203C485.222 4.94674 485.792 4.20996 486.806 4.20996C487.25 4.20996 487.662 4.3381 488.042 4.59437C488.422 4.78657 489.056 5.0108 489.943 5.26708C490.894 5.52335 492.384 5.65148 494.412 5.65148H515.612C517.641 5.65148 519.098 5.52335 519.986 5.26708C520.936 5.0108 521.602 4.78657 521.982 4.59437C522.426 4.3381 522.838 4.20996 523.218 4.20996C524.232 4.20996 524.803 4.94674 524.929 6.4203L525.785 23.8147C525.912 24.9038 525.5 25.4484 524.549 25.4484C523.788 25.4484 523.345 25.0319 523.218 24.1991L522.743 21.0277C522.109 16.4789 520.651 13.1794 518.369 11.1293C516.088 9.0791 513.743 8.05402 511.334 8.05402C510.13 8.05402 509.338 8.24622 508.957 8.63063C508.577 9.01503 508.387 9.65571 508.387 10.5527V68.2135C508.387 69.559 508.609 70.488 509.053 71.0005C509.56 71.449 510.415 71.7693 511.619 71.9615L515.898 72.6342C516.722 72.6983 517.134 73.0827 517.134 73.7874C517.134 74.4922 516.658 74.8446 515.707 74.8446H494.317Z" fill="#2B30A3"/>
<path d="M443.356 74.8445C442.405 74.8445 441.93 74.5242 441.93 73.8835C441.93 73.2428 442.373 72.8264 443.261 72.6342L444.687 72.3459C445.954 72.0896 446.905 71.481 447.539 70.5199C448.173 69.4949 448.711 68.0854 449.155 66.2915L463.891 6.22805C464.018 5.58737 464.208 5.17093 464.461 4.97873C464.778 4.78653 465.063 4.69043 465.317 4.69043C465.634 4.69043 465.919 4.78653 466.173 4.97873C466.49 5.17093 466.711 5.58737 466.838 6.22805L481.859 67.1564C482.303 68.9503 482.81 70.1996 483.38 70.9044C483.951 71.6091 484.838 72.0896 486.042 72.3459L487.468 72.6342C488.356 72.8264 488.799 73.2428 488.799 73.8835C488.799 74.5242 488.324 74.8445 487.373 74.8445H471.116C470.229 74.8445 469.785 74.4921 469.785 73.7874C469.785 73.0826 470.324 72.6982 471.402 72.6342L473.208 72.442C474.285 72.3138 474.951 71.9615 475.204 71.3849C475.521 70.8083 475.521 69.8152 475.204 68.4057L471.592 53.51C471.211 51.8442 470.166 51.0113 468.454 51.0113H458.472C456.824 51.0113 455.778 51.8442 455.335 53.51L452.102 66.3876C451.152 70.0394 452.102 72.0576 454.954 72.442L456.38 72.6342C457.458 72.8264 457.997 73.2108 457.997 73.7874C457.997 74.4921 457.553 74.8445 456.666 74.8445H443.356ZM458.187 48.1283H468.644C469.659 48.1283 470.071 47.5837 469.88 46.4946L463.796 20.7394H463.321L456.951 46.4946C456.761 47.5837 457.173 48.1283 458.187 48.1283Z" fill="#2B30A3"/>
<path d="M437.045 75.7094C436.031 75.7094 435.176 74.9405 434.478 73.4029L408.714 16.8952C408.524 16.4468 408.271 16.2546 407.954 16.3186C407.7 16.3827 407.574 16.671 407.574 17.1835V66.5797C407.574 68.3736 407.859 69.7511 408.429 70.7121C409.063 71.609 410.172 72.1856 411.757 72.4419L412.993 72.6341C413.816 72.6982 414.228 73.0826 414.228 73.7873C414.228 74.4921 413.753 74.8444 412.802 74.8444H399.207C398.257 74.8444 397.781 74.4921 397.781 73.7873C397.781 73.0826 398.193 72.6982 399.017 72.6341L400.253 72.4419C401.901 72.1856 403.042 71.609 403.676 70.7121C404.309 69.7511 404.626 68.3736 404.626 66.5797V11.9941C404.626 10.6486 404.404 9.7517 403.961 9.30322C403.581 8.85475 402.662 8.50238 401.204 8.24611L399.017 7.8617C398.193 7.6695 397.781 7.28509 397.781 6.70848C397.781 6.00374 398.257 5.65137 399.207 5.65137H409.38C410.964 5.65137 412.073 6.35611 412.707 7.7656L435.144 57.6423C435.334 58.0267 435.556 58.1868 435.809 58.1228C436.126 58.0587 436.285 57.8345 436.285 57.4501V13.9161C436.285 11.8659 435.936 10.4564 435.239 9.68763C434.542 8.85475 433.654 8.34221 432.577 8.15001L430.866 7.8617C430.042 7.6695 429.63 7.28509 429.63 6.70848C429.63 6.00374 430.105 5.65137 431.056 5.65137H444.651C445.602 5.65137 446.077 6.00374 446.077 6.70848C446.077 7.41323 445.665 7.79763 444.841 7.8617L443.605 8.0539C441.957 8.31017 440.816 8.85475 440.183 9.68763C439.549 10.4564 439.232 11.8659 439.232 13.9161V72.6341C439.232 73.7873 439.01 74.5882 438.566 75.0366C438.186 75.4851 437.679 75.7094 437.045 75.7094Z" fill="#2B30A3"/>
<path d="M388.194 75.7094C382.68 75.7094 379.162 72.0575 377.641 64.7538L375.455 54.0865C374.757 50.6269 373.965 48.0001 373.078 46.2062C372.254 44.4123 371.081 43.195 369.56 42.5543C368.103 41.9137 366.074 41.5933 363.476 41.5933C362.588 41.5933 361.891 41.8496 361.384 42.3621C360.877 42.8106 360.624 43.3872 360.624 44.092V68.1173C360.624 69.4628 360.877 70.3917 361.384 70.9043C361.891 71.3528 363.032 71.7372 364.807 72.0575L368.324 72.6341C369.022 72.7623 369.37 73.1146 369.37 73.6912C369.37 74.46 368.895 74.8444 367.944 74.8444H348.645C347.694 74.8444 347.219 74.4921 347.219 73.7873C347.219 73.2107 347.631 72.8263 348.455 72.6341L350.641 72.2497C351.972 71.9934 352.828 71.6411 353.208 71.1926C353.652 70.7441 353.874 69.8472 353.874 68.5017V11.9941C353.874 10.6486 353.652 9.7517 353.208 9.30322C352.828 8.85475 351.972 8.50238 350.641 8.24611L348.455 7.8617C347.631 7.6695 347.219 7.28509 347.219 6.70848C347.219 6.00374 347.694 5.65137 348.645 5.65137H367.944C371.684 5.65137 375.011 6.38815 377.926 7.8617C380.842 9.33526 383.124 11.3854 384.772 14.0122C386.419 16.5749 387.243 19.554 387.243 22.9496C387.243 26.9859 386.039 30.6378 383.631 33.9052C381.222 37.1086 378.18 39.383 374.504 40.7284C374.06 40.8565 373.807 41.0808 373.743 41.4011C373.743 41.6574 373.965 41.8816 374.409 42.0738C376.437 43.0348 378.022 44.3803 379.162 46.1101C380.367 47.8399 381.286 50.1464 381.919 53.0294L384.011 62.8318C384.708 66.1633 385.532 68.5338 386.483 69.9433C387.434 71.3528 388.638 72.0575 390.095 72.0575C390.603 72.0575 391.046 71.9934 391.426 71.8653C391.87 71.6731 392.409 71.3528 393.043 70.9043C393.55 70.5839 394.025 70.5199 394.469 70.7121C394.912 70.8402 395.134 71.1606 395.134 71.6731C395.134 72.7622 394.437 73.7233 393.043 74.5561C391.648 75.325 390.032 75.7094 388.194 75.7094ZM366.993 39.1908C371.303 39.1908 374.567 37.7493 376.786 34.8662C379.004 31.9191 380.113 28.011 380.113 23.1418C380.113 18.4008 378.814 14.7169 376.215 12.0902C373.68 9.39932 370.162 8.0539 365.662 8.0539C362.303 8.0539 360.624 9.33526 360.624 11.898V33.9052C360.624 37.4289 362.747 39.1908 366.993 39.1908Z" fill="#2B30A3"/>
<path d="M305.567 74.8444C304.616 74.8444 304.141 74.4921 304.141 73.7873C304.141 73.2107 304.553 72.8263 305.377 72.6341L307.563 72.2497C308.894 71.9934 309.75 71.6411 310.13 71.1926C310.574 70.7441 310.796 69.8472 310.796 68.5017V11.9941C310.796 10.6486 310.574 9.7517 310.13 9.30322C309.75 8.85475 308.894 8.50238 307.563 8.24611L305.377 7.8617C304.553 7.6695 304.141 7.28509 304.141 6.70848C304.141 6.00374 304.616 5.65137 305.567 5.65137H337.51C338.968 5.65137 339.76 6.38815 339.887 7.8617L340.648 23.8146C340.774 24.9037 340.362 25.4483 339.412 25.4483C338.651 25.4483 338.208 25.0318 338.081 24.199L337.51 20.6432C336.813 16.2866 335.387 13.1152 333.232 11.1292C331.077 9.07898 328.098 8.0539 324.296 8.0539C321.76 8.0539 319.986 8.43831 318.972 9.20712C318.021 9.91187 317.546 11.1932 317.546 13.0512V36.2116C317.546 37.1086 317.989 37.5571 318.877 37.5571H323.63C326.419 37.5571 328.13 36.0515 328.764 33.0403L329.715 28.2352C329.968 27.2742 330.507 26.8578 331.331 26.9859C332.028 27.114 332.377 27.6586 332.377 28.6196V50.2425C332.377 51.2035 332.028 51.7481 331.331 51.8762C330.507 52.0043 329.968 51.5879 329.715 50.6269L328.764 45.9179C328.32 43.6755 327.686 42.202 326.862 41.4972C326.102 40.7925 324.993 40.4401 323.535 40.4401H318.877C317.989 40.4401 317.546 40.8886 317.546 41.7855V65.907C317.546 68.2134 318.116 69.8792 319.257 70.9043C320.461 71.9294 322.616 72.4419 325.722 72.4419C328.891 72.4419 331.584 71.6411 333.803 70.0394C336.084 68.3736 337.669 65.2984 338.556 60.8136L339.697 55.1436C339.887 54.3108 340.362 53.8943 341.123 53.8943C342.01 53.8943 342.391 54.4389 342.264 55.528L341.313 72.6341C341.186 74.1077 340.394 74.8444 338.936 74.8444H305.567Z" fill="#2B30A3"/>
<path d="M269.731 74.8446C268.78 74.8446 268.305 74.4922 268.305 73.7874C268.305 73.0827 268.717 72.6983 269.541 72.6342L273.819 71.9615C275.086 71.7693 275.942 71.449 276.386 71.0005C276.829 70.488 277.051 69.559 277.051 68.2135V10.5527C277.051 9.65571 276.861 9.01503 276.481 8.63063C276.1 8.24622 275.308 8.05402 274.104 8.05402C271.759 8.05402 269.445 9.0791 267.164 11.1293C264.882 13.1794 263.393 16.4789 262.695 21.0277L262.22 24.1991C262.093 25.0319 261.65 25.4484 260.889 25.4484C259.938 25.4484 259.526 24.9038 259.653 23.8147L260.509 6.4203C260.636 4.94674 261.206 4.20996 262.22 4.20996C262.664 4.20996 263.076 4.3381 263.456 4.59437C263.836 4.78657 264.47 5.0108 265.357 5.26708C266.308 5.52335 267.798 5.65148 269.826 5.65148H291.026C293.055 5.65148 294.512 5.52335 295.4 5.26708C296.35 5.0108 297.016 4.78657 297.396 4.59437C297.84 4.3381 298.252 4.20996 298.632 4.20996C299.646 4.20996 300.217 4.94674 300.343 6.4203L301.199 23.8147C301.326 24.9038 300.914 25.4484 299.963 25.4484C299.202 25.4484 298.759 25.0319 298.632 24.1991L298.157 21.0277C297.523 16.4789 296.065 13.1794 293.783 11.1293C291.502 9.0791 289.157 8.05402 286.748 8.05402C285.544 8.05402 284.752 8.24622 284.372 8.63063C283.991 9.01503 283.801 9.65571 283.801 10.5527V68.2135C283.801 69.559 284.023 70.488 284.467 71.0005C284.974 71.449 285.829 71.7693 287.033 71.9615L291.312 72.6342C292.136 72.6983 292.548 73.0827 292.548 73.7874C292.548 74.4922 292.072 74.8446 291.122 74.8446H269.731Z" fill="#2B30A3"/>
<path d="M247.955 75.7094C246.941 75.7094 246.086 74.9406 245.389 73.4029L219.624 16.8952C219.434 16.4468 219.181 16.2546 218.864 16.3186C218.61 16.3827 218.484 16.671 218.484 17.1835V66.5797C218.484 68.3736 218.769 69.7511 219.339 70.7121C219.973 71.609 221.082 72.1856 222.667 72.4419L223.903 72.6341C224.727 72.6982 225.139 73.0826 225.139 73.7873C225.139 74.4921 224.663 74.8444 223.713 74.8444H210.117C209.167 74.8444 208.691 74.4921 208.691 73.7873C208.691 73.0826 209.103 72.6982 209.927 72.6341L211.163 72.4419C212.811 72.1856 213.952 71.609 214.586 70.7121C215.22 69.7511 215.536 68.3736 215.536 66.5797V11.9941C215.536 10.6486 215.315 9.7517 214.871 9.30322C214.491 8.85475 213.572 8.50238 212.114 8.24611L209.927 7.8617C209.103 7.6695 208.691 7.28509 208.691 6.70848C208.691 6.00374 209.167 5.65137 210.117 5.65137H220.29C221.874 5.65137 222.984 6.35611 223.617 7.7656L246.054 57.6423C246.244 58.0267 246.466 58.1869 246.72 58.1228C247.036 58.0587 247.195 57.8345 247.195 57.4501V13.9161C247.195 11.8659 246.846 10.4564 246.149 9.68763C245.452 8.85475 244.565 8.34221 243.487 8.15001L241.776 7.8617C240.952 7.6695 240.54 7.28509 240.54 6.70848C240.54 6.00374 241.015 5.65137 241.966 5.65137H255.561C256.512 5.65137 256.987 6.00374 256.987 6.70848C256.987 7.41323 256.575 7.79763 255.751 7.8617L254.515 8.0539C252.867 8.31017 251.727 8.85475 251.093 9.68763C250.459 10.4564 250.142 11.8659 250.142 13.9161V72.6341C250.142 73.7873 249.92 74.5882 249.477 75.0367C249.096 75.4851 248.589 75.7094 247.955 75.7094Z" fill="#2B30A3"/>
<path d="M186.729 74.8444C185.778 74.8444 185.303 74.4921 185.303 73.7873C185.303 73.2107 185.715 72.8263 186.539 72.6341L188.725 72.2497C190.056 71.9934 190.912 71.6411 191.292 71.1926C191.736 70.7441 191.958 69.8472 191.958 68.5017V11.9941C191.958 10.6486 191.736 9.7517 191.292 9.30322C190.912 8.85475 190.056 8.50238 188.725 8.24611L186.539 7.8617C185.715 7.6695 185.303 7.28509 185.303 6.70848C185.303 6.00374 185.778 5.65137 186.729 5.65137H203.937C204.887 5.65137 205.363 6.00374 205.363 6.70848C205.363 7.28509 204.951 7.6695 204.127 7.8617L201.94 8.24611C200.609 8.50238 199.722 8.85475 199.278 9.30322C198.898 9.7517 198.708 10.6486 198.708 11.9941V68.5017C198.708 69.8472 198.898 70.7441 199.278 71.1926C199.722 71.6411 200.609 71.9934 201.94 72.2497L204.127 72.6341C204.951 72.8263 205.363 73.2107 205.363 73.7873C205.363 74.4921 204.887 74.8444 203.937 74.8444H186.729Z" fill="#2B30A3"/>
<path d="M726.447 154.95C721.408 154.95 718.194 151.614 716.804 144.94L714.806 135.193C714.169 132.032 713.445 129.631 712.634 127.992C711.882 126.353 710.81 125.241 709.42 124.655C708.088 124.07 706.235 123.777 703.861 123.777C703.05 123.777 702.413 124.011 701.949 124.48C701.486 124.89 701.254 125.416 701.254 126.06V148.013C701.254 149.243 701.486 150.092 701.949 150.56C702.413 150.97 703.455 151.321 705.077 151.614L708.291 152.14C708.928 152.258 709.247 152.58 709.247 153.106C709.247 153.809 708.812 154.16 707.943 154.16H690.309C689.44 154.16 689.006 153.838 689.006 153.194C689.006 152.667 689.382 152.316 690.135 152.14L692.133 151.789C693.349 151.555 694.131 151.233 694.479 150.823C694.884 150.414 695.087 149.594 695.087 148.365V96.7311C695.087 95.5018 694.884 94.6822 694.479 94.2724C694.131 93.8626 693.349 93.5406 692.133 93.3065L690.135 92.9552C689.382 92.7796 689.006 92.4283 689.006 91.9015C689.006 91.2575 689.44 90.9355 690.309 90.9355H707.943C711.36 90.9355 714.401 91.6088 717.065 92.9552C719.729 94.3017 721.814 96.175 723.319 98.5752C724.825 100.917 725.578 103.639 725.578 106.742C725.578 110.43 724.478 113.767 722.277 116.752C720.076 119.679 717.296 121.758 713.938 122.987C713.532 123.104 713.3 123.309 713.243 123.602C713.243 123.836 713.445 124.041 713.851 124.216C715.704 125.094 717.152 126.324 718.194 127.904C719.294 129.485 720.134 131.592 720.713 134.227L722.624 143.184C723.262 146.228 724.014 148.394 724.883 149.682C725.752 150.97 726.852 151.614 728.184 151.614C728.647 151.614 729.053 151.555 729.4 151.438C729.806 151.262 730.298 150.97 730.877 150.56C731.34 150.267 731.775 150.209 732.18 150.384C732.586 150.501 732.788 150.794 732.788 151.262C732.788 152.258 732.151 153.136 730.877 153.897C729.603 154.599 728.126 154.95 726.447 154.95ZM707.075 121.582C711.013 121.582 713.995 120.265 716.022 117.63C718.049 114.937 719.063 111.366 719.063 106.917C719.063 102.585 717.876 99.2191 715.501 96.8189C713.185 94.3602 709.97 93.1308 705.859 93.1308C702.789 93.1308 701.254 94.3017 701.254 96.6433V116.752C701.254 119.972 703.195 121.582 707.075 121.582Z" fill="#2B30A3"/>
<path d="M666.828 154.951C664.048 154.951 661.442 154.132 659.009 152.492C656.577 150.795 654.434 148.482 652.581 145.555C650.786 142.628 649.367 139.204 648.324 135.281C647.34 131.3 646.848 127.027 646.848 122.461C646.848 117.894 647.34 113.65 648.324 109.728C649.367 105.806 650.786 102.381 652.581 99.454C654.434 96.4684 656.577 94.156 659.009 92.5168C661.442 90.8777 664.048 90.0581 666.828 90.0581C669.608 90.0581 672.185 90.8777 674.559 92.5168C676.991 94.156 679.134 96.4684 680.987 99.454C682.841 102.381 684.26 105.806 685.244 109.728C686.287 113.65 686.808 117.894 686.808 122.461C686.808 127.027 686.287 131.3 685.244 135.281C684.26 139.204 682.841 142.628 680.987 145.555C679.134 148.482 676.991 150.795 674.559 152.492C672.185 154.132 669.608 154.951 666.828 154.951ZM666.828 152.58C670.94 152.58 674.154 150.092 676.47 145.116C678.787 140.14 679.945 132.588 679.945 122.461C679.945 112.333 678.787 104.811 676.47 99.893C674.154 94.917 670.94 92.429 666.828 92.429C662.774 92.429 659.56 94.917 657.185 99.893C654.869 104.811 653.71 112.333 653.71 122.461C653.71 132.588 654.869 140.14 657.185 145.116C659.56 150.092 662.774 152.58 666.828 152.58Z" fill="#2B30A3"/>
<path d="M623.981 154.951C622.823 154.951 621.52 154.834 620.072 154.6C618.682 154.366 617.35 154.073 616.076 153.722C614.86 153.371 613.904 152.99 613.209 152.58C612.804 152.346 612.485 152.112 612.254 151.878C612.08 151.585 611.993 151.117 611.993 150.473L611.559 136.686C611.559 135.515 611.935 134.93 612.688 134.93C613.325 134.93 613.759 135.457 613.991 136.511L614.773 139.847C616.742 148.219 620.419 152.405 625.805 152.405C628.701 152.405 630.988 151.439 632.668 149.507C634.405 147.516 635.274 144.736 635.274 141.165C635.274 137.711 634.376 134.491 632.581 131.505C630.844 128.52 628.035 125.563 624.155 122.636C619.869 119.534 616.742 116.548 614.773 113.68C612.804 110.752 611.819 107.65 611.819 104.371C611.819 100.039 613.296 96.5855 616.25 94.0096C619.261 91.3753 623.083 90.0581 627.716 90.0581C629.454 90.0581 631.133 90.263 632.755 90.6728C634.376 91.0826 635.708 91.668 636.751 92.429C637.098 92.6632 637.359 92.9266 637.533 93.2193C637.764 93.512 637.88 93.8926 637.88 94.3609L638.141 107.62C638.141 108.616 637.764 109.113 637.011 109.113C636.49 109.113 636.114 108.704 635.882 107.884L635.274 105.689C634 101.181 632.668 97.9026 631.278 95.8537C629.946 93.7462 628.006 92.6925 625.458 92.6925C622.967 92.6925 620.969 93.512 619.464 95.1512C618.016 96.7904 617.292 99.1027 617.292 102.088C617.292 104.606 618.103 107.006 619.724 109.289C621.346 111.572 624.184 114.353 628.238 117.631C632.581 121.202 635.737 124.656 637.706 127.993C639.733 131.271 640.747 134.784 640.747 138.53C640.747 141.809 640.023 144.677 638.575 147.136C637.127 149.595 635.129 151.526 632.581 152.931C630.091 154.278 627.224 154.951 623.981 154.951Z" fill="#2B30A3"/>
<path d="M589.319 154.16C588.45 154.16 588.016 153.838 588.016 153.194C588.016 152.667 588.392 152.316 589.145 152.14L591.143 151.789C592.359 151.555 593.141 151.233 593.488 150.823C593.894 150.414 594.096 149.594 594.096 148.365V96.7311C594.096 95.5018 593.894 94.6822 593.488 94.2724C593.141 93.8626 592.359 93.5406 591.143 93.3065L589.145 92.9552C588.392 92.7796 588.016 92.4283 588.016 91.9015C588.016 91.2575 588.45 90.9355 589.319 90.9355H605.042C605.911 90.9355 606.345 91.2575 606.345 91.9015C606.345 92.4283 605.969 92.7796 605.216 92.9552L603.218 93.3065C602.002 93.5406 601.191 93.8626 600.785 94.2724C600.438 94.6822 600.264 95.5018 600.264 96.7311V148.365C600.264 149.594 600.438 150.414 600.785 150.823C601.191 151.233 602.002 151.555 603.218 151.789L605.216 152.14C605.969 152.316 606.345 152.667 606.345 153.194C606.345 153.838 605.911 154.16 605.042 154.16H589.319Z" fill="#2B30A3"/>
<path d="M563.726 155.038C563.495 155.038 563.234 154.95 562.945 154.775C562.655 154.599 562.452 154.219 562.336 153.633L548.611 97.9605C548.206 96.3213 547.742 95.1798 547.221 94.5358C546.758 93.8919 545.947 93.4528 544.789 93.2187L543.486 92.9552C542.675 92.7796 542.27 92.3991 542.27 91.8137C542.27 91.2283 542.704 90.9355 543.573 90.9355H558.427C559.238 90.9355 559.643 91.2575 559.643 91.9015C559.643 92.5454 559.151 92.8967 558.167 92.9552L556.516 93.1308C555.532 93.1894 554.895 93.5114 554.605 94.0968C554.373 94.6237 554.402 95.531 554.692 96.8189L564.769 139.057C564.885 139.408 565.058 139.583 565.29 139.583C565.58 139.583 565.753 139.408 565.811 139.057L575.801 98.663C576.612 95.3261 575.743 93.4821 573.195 93.1308L571.892 92.9552C570.908 92.7796 570.415 92.4283 570.415 91.9015C570.415 91.2575 570.821 90.9355 571.632 90.9355H583.793C584.662 90.9355 585.096 91.2283 585.096 91.8137C585.096 92.3991 584.691 92.7796 583.88 92.9552L582.577 93.2187C581.477 93.4528 580.608 94.0382 579.971 94.9749C579.392 95.853 578.9 97.1117 578.494 98.7508L565.029 153.633C564.914 154.219 564.711 154.599 564.421 154.775C564.19 154.95 563.958 155.038 563.726 155.038Z" fill="#2B30A3"/>
<path d="M505.926 154.16C505.057 154.16 504.623 153.838 504.623 153.194C504.623 152.667 504.999 152.316 505.752 152.14L507.75 151.789C509.719 151.438 510.704 150.296 510.704 148.365V96.7311C510.704 95.5018 510.501 94.6822 510.096 94.2724C509.748 93.8626 508.967 93.5406 507.75 93.3065L505.752 92.9552C504.999 92.7796 504.623 92.4283 504.623 91.9015C504.623 91.2575 505.057 90.9355 505.926 90.9355H523.474C527.991 90.9355 531.9 92.282 535.201 94.9749C538.502 97.6093 541.05 101.327 542.846 106.127C544.641 110.927 545.539 116.489 545.539 122.811C545.539 129.192 544.583 134.724 542.672 139.408C540.819 144.091 538.184 147.721 534.767 150.296C531.35 152.872 527.296 154.16 522.605 154.16H505.926ZM522.953 151.877C528.107 151.877 532.016 149.389 534.68 144.413C537.402 139.437 538.763 132.236 538.763 122.811C538.763 113.445 537.46 106.186 534.854 101.034C532.306 95.8237 528.512 93.2187 523.474 93.2187C519.072 93.2187 516.872 95.3554 516.872 99.6289V145.467C516.872 147.808 517.335 149.477 518.262 150.472C519.246 151.409 520.81 151.877 522.953 151.877Z" fill="#2B30A3"/>
<path d="M461.778 154.161C460.909 154.161 460.475 153.868 460.475 153.283C460.475 152.697 460.88 152.317 461.691 152.141L462.994 151.878C464.152 151.644 465.021 151.087 465.6 150.209C466.179 149.273 466.671 147.985 467.077 146.346L480.542 91.4631C480.657 90.8777 480.831 90.4972 481.063 90.3215C481.352 90.1459 481.613 90.0581 481.845 90.0581C482.134 90.0581 482.395 90.1459 482.626 90.3215C482.916 90.4972 483.119 90.8777 483.234 91.4631L496.96 147.136C497.365 148.775 497.829 149.917 498.35 150.561C498.871 151.204 499.682 151.644 500.782 151.878L502.085 152.141C502.896 152.317 503.301 152.697 503.301 153.283C503.301 153.868 502.867 154.161 501.998 154.161H487.144C486.333 154.161 485.927 153.839 485.927 153.195C485.927 152.551 486.42 152.2 487.404 152.141L489.055 151.966C490.039 151.848 490.647 151.526 490.879 151C491.169 150.473 491.169 149.565 490.879 148.277L487.578 134.667C487.231 133.144 486.275 132.383 484.711 132.383H475.59C474.084 132.383 473.129 133.144 472.723 134.667L469.77 146.433C468.901 149.77 469.77 151.614 472.376 151.966L473.679 152.141C474.663 152.317 475.156 152.668 475.156 153.195C475.156 153.839 474.75 154.161 473.939 154.161H461.778ZM475.329 129.749H484.885C485.812 129.749 486.188 129.251 486.014 128.256L480.455 104.723H480.02L474.2 128.256C474.026 129.251 474.403 129.749 475.329 129.749Z" fill="#2B30A3"/>
<path d="M427.254 154.951C422.563 154.951 418.595 153.605 415.352 150.912C412.109 148.219 409.648 144.443 407.968 139.584C406.289 134.667 405.449 128.871 405.449 122.197C405.449 115.758 406.434 110.138 408.403 105.337C410.372 100.478 413.065 96.7318 416.482 94.0975C419.956 91.4046 423.924 90.0581 428.383 90.0581C430.641 90.0581 432.697 90.2923 434.551 90.7606C436.404 91.1704 438.025 91.7265 439.415 92.429C440.168 92.8388 440.545 93.4535 440.545 94.2731L440.805 107.62C440.805 108.616 440.458 109.113 439.763 109.113C439.126 109.113 438.72 108.733 438.547 107.972L437.852 105.337C436.578 100.478 435.13 97.1416 433.508 95.3268C431.887 93.512 429.657 92.6047 426.819 92.6047C422.592 92.6047 419.088 95.1512 416.308 100.244C413.586 105.279 412.225 112.597 412.225 122.197C412.225 132.091 413.615 139.643 416.395 144.853C419.233 150.004 422.852 152.58 427.254 152.58C429.628 152.58 431.423 152.053 432.639 151C433.856 149.946 434.464 147.985 434.464 145.116V125.885C434.464 124.656 434.261 123.807 433.856 123.339C433.508 122.871 432.726 122.578 431.51 122.461L428.122 122.109C427.369 122.051 426.993 121.7 426.993 121.056C426.993 120.412 427.427 120.09 428.296 120.09H444.193C445.062 120.09 445.496 120.441 445.496 121.144C445.496 121.67 445.178 121.992 444.541 122.109L443.238 122.285C441.963 122.461 441.211 122.812 440.979 123.339C440.747 123.866 440.631 124.744 440.631 125.973V149.77C440.631 150.414 440.458 150.941 440.11 151.351C439.763 151.702 439.155 152.112 438.286 152.58C436.896 153.283 435.303 153.839 433.508 154.249C431.713 154.717 429.628 154.951 427.254 154.951Z" fill="#2B30A3"/>
<path d="M393.348 154.95C392.421 154.95 391.639 154.248 391.002 152.843L367.461 101.21C367.287 100.8 367.055 100.624 366.766 100.683C366.534 100.741 366.418 101.005 366.418 101.473V146.608C366.418 148.247 366.679 149.506 367.2 150.384C367.779 151.204 368.793 151.731 370.241 151.965L371.37 152.14C372.123 152.199 372.499 152.55 372.499 153.194C372.499 153.838 372.065 154.16 371.196 154.16H358.774C357.905 154.16 357.471 153.838 357.471 153.194C357.471 152.55 357.847 152.199 358.6 152.14L359.729 151.965C361.235 151.731 362.277 151.204 362.857 150.384C363.436 149.506 363.725 148.247 363.725 146.608V96.7311C363.725 95.5018 363.523 94.6822 363.117 94.2724C362.77 93.8626 361.93 93.5406 360.598 93.3065L358.6 92.9552C357.847 92.7796 357.471 92.4283 357.471 91.9015C357.471 91.2575 357.905 90.9355 358.774 90.9355H368.069C369.517 90.9355 370.53 91.5795 371.109 92.8674L391.611 138.442C391.784 138.793 391.987 138.939 392.219 138.881C392.508 138.822 392.653 138.617 392.653 138.266V98.4874C392.653 96.6141 392.334 95.3261 391.697 94.6236C391.06 93.8626 390.25 93.3943 389.265 93.2187L387.701 92.9552C386.948 92.7796 386.572 92.4283 386.572 91.9015C386.572 91.2575 387.006 90.9355 387.875 90.9355H400.297C401.166 90.9355 401.601 91.2575 401.601 91.9015C401.601 92.5454 401.224 92.8967 400.471 92.9552L399.342 93.1308C397.836 93.365 396.794 93.8626 396.215 94.6236C395.635 95.3261 395.346 96.6141 395.346 98.4874V152.14C395.346 153.194 395.143 153.926 394.738 154.336C394.39 154.746 393.927 154.95 393.348 154.95Z" fill="#2B30A3"/>
<path d="M337.401 154.16C336.532 154.16 336.098 153.838 336.098 153.194C336.098 152.667 336.474 152.316 337.227 152.14L339.225 151.789C340.441 151.555 341.223 151.233 341.57 150.823C341.976 150.414 342.179 149.594 342.179 148.365V96.7311C342.179 95.5018 341.976 94.6822 341.57 94.2724C341.223 93.8626 340.441 93.5406 339.225 93.3065L337.227 92.9552C336.474 92.7796 336.098 92.4283 336.098 91.9015C336.098 91.2575 336.532 90.9355 337.401 90.9355H353.124C353.993 90.9355 354.427 91.2575 354.427 91.9015C354.427 92.4283 354.051 92.7796 353.298 92.9552L351.3 93.3065C350.084 93.5406 349.273 93.8626 348.867 94.2724C348.52 94.6822 348.346 95.5018 348.346 96.7311V148.365C348.346 149.594 348.52 150.414 348.867 150.823C349.273 151.233 350.084 151.555 351.3 151.789L353.298 152.14C354.051 152.316 354.427 152.667 354.427 153.194C354.427 153.838 353.993 154.16 353.124 154.16H337.401Z" fill="#2B30A3"/>
<path d="M315.996 155.038C315.764 155.038 315.504 154.95 315.214 154.775C314.924 154.599 314.722 154.219 314.606 153.633L300.881 97.9605C300.475 96.3213 300.012 95.1798 299.491 94.5358C299.027 93.8919 298.217 93.4528 297.058 93.2187L295.755 92.9552C294.944 92.7796 294.539 92.3991 294.539 91.8137C294.539 91.2283 294.973 90.9355 295.842 90.9355H310.697C311.508 90.9355 311.913 91.2575 311.913 91.9015C311.913 92.5454 311.421 92.8967 310.436 92.9552L308.786 93.1308C307.801 93.1894 307.164 93.5114 306.875 94.0968C306.643 94.6237 306.672 95.531 306.961 96.8189L317.038 139.057C317.154 139.408 317.328 139.583 317.56 139.583C317.849 139.583 318.023 139.408 318.081 139.057L328.071 98.663C328.882 95.3261 328.013 93.4821 325.465 93.1308L324.162 92.9552C323.177 92.7796 322.685 92.4283 322.685 91.9015C322.685 91.2575 323.09 90.9355 323.901 90.9355H336.063C336.932 90.9355 337.366 91.2283 337.366 91.8137C337.366 92.3991 336.96 92.7796 336.15 92.9552L334.847 93.2187C333.746 93.4528 332.878 94.0382 332.241 94.9749C331.661 95.853 331.169 97.1117 330.764 98.7508L317.299 153.633C317.183 154.219 316.98 154.599 316.691 154.775C316.459 154.95 316.228 155.038 315.996 155.038Z" fill="#2B30A3"/>
<path d="M277.424 154.16C276.555 154.16 276.121 153.838 276.121 153.194C276.121 152.667 276.498 152.316 277.25 152.14L279.248 151.789C280.465 151.555 281.246 151.233 281.594 150.823C281.999 150.414 282.202 149.594 282.202 148.365V96.7311C282.202 95.5018 281.999 94.6822 281.594 94.2724C281.246 93.8626 280.465 93.5406 279.248 93.3065L277.25 92.9552C276.498 92.7796 276.121 92.4283 276.121 91.9015C276.121 91.2575 276.555 90.9355 277.424 90.9355H293.148C294.016 90.9355 294.451 91.2575 294.451 91.9015C294.451 92.4283 294.074 92.7796 293.321 92.9552L291.323 93.3065C290.107 93.5406 289.296 93.8626 288.891 94.2724C288.543 94.6822 288.37 95.5018 288.37 96.7311V148.365C288.37 149.594 288.543 150.414 288.891 150.823C289.296 151.233 290.107 151.555 291.323 151.789L293.321 152.14C294.074 152.316 294.451 152.667 294.451 153.194C294.451 153.838 294.016 154.16 293.148 154.16H277.424Z" fill="#2B30A3"/>
<path d="M267.96 154.95C262.922 154.95 259.708 151.614 258.318 144.94L256.32 135.193C255.683 132.032 254.959 129.631 254.148 127.992C253.395 126.353 252.324 125.241 250.934 124.655C249.602 124.07 247.749 123.777 245.374 123.777C244.563 123.777 243.926 124.011 243.463 124.48C243 124.89 242.768 125.416 242.768 126.06V148.013C242.768 149.243 243 150.092 243.463 150.56C243.926 150.97 244.969 151.321 246.59 151.614L249.805 152.14C250.442 152.258 250.76 152.58 250.76 153.106C250.76 153.809 250.326 154.16 249.457 154.16H231.823C230.954 154.16 230.52 153.838 230.52 153.194C230.52 152.667 230.896 152.316 231.649 152.14L233.647 151.789C234.863 151.555 235.645 151.233 235.992 150.823C236.398 150.414 236.6 149.594 236.6 148.365V96.7311C236.6 95.5018 236.398 94.6822 235.992 94.2724C235.645 93.8626 234.863 93.5406 233.647 93.3065L231.649 92.9552C230.896 92.7796 230.52 92.4283 230.52 91.9015C230.52 91.2575 230.954 90.9355 231.823 90.9355H249.457C252.874 90.9355 255.914 91.6088 258.578 92.9552C261.242 94.3017 263.327 96.175 264.833 98.5752C266.339 100.917 267.092 103.639 267.092 106.742C267.092 110.43 265.991 113.767 263.791 116.752C261.59 119.679 258.81 121.758 255.451 122.987C255.046 123.104 254.814 123.309 254.756 123.602C254.756 123.836 254.959 124.041 255.364 124.216C257.218 125.094 258.665 126.324 259.708 127.904C260.808 129.485 261.648 131.592 262.227 134.227L264.138 143.184C264.775 146.228 265.528 148.394 266.397 149.682C267.265 150.97 268.366 151.614 269.698 151.614C270.161 151.614 270.566 151.555 270.914 151.438C271.319 151.262 271.812 150.97 272.391 150.56C272.854 150.267 273.288 150.209 273.694 150.384C274.099 150.501 274.302 150.794 274.302 151.262C274.302 152.258 273.665 153.136 272.391 153.897C271.117 154.599 269.64 154.95 267.96 154.95ZM248.588 121.582C252.527 121.582 255.509 120.265 257.536 117.63C259.563 114.937 260.576 111.366 260.576 106.917C260.576 102.585 259.389 99.2191 257.015 96.8189C254.698 94.3602 251.484 93.1308 247.372 93.1308C244.303 93.1308 242.768 94.3017 242.768 96.6433V116.752C242.768 119.972 244.708 121.582 248.588 121.582Z" fill="#2B30A3"/>
<path d="M186.606 154.16C185.737 154.16 185.303 153.838 185.303 153.194C185.303 152.667 185.679 152.316 186.432 152.14L188.43 151.789C190.399 151.438 191.384 150.296 191.384 148.365V96.7311C191.384 95.5018 191.181 94.6822 190.776 94.2724C190.428 93.8626 189.646 93.5406 188.43 93.3065L186.432 92.9552C185.679 92.7796 185.303 92.4283 185.303 91.9015C185.303 91.2575 185.737 90.9355 186.606 90.9355H204.153C208.671 90.9355 212.58 92.282 215.881 94.9749C219.182 97.6093 221.73 101.327 223.525 106.127C225.321 110.927 226.218 116.489 226.218 122.811C226.218 129.192 225.263 134.724 223.352 139.408C221.498 144.091 218.863 147.721 215.447 150.296C212.03 152.872 207.976 154.16 203.285 154.16H186.606ZM203.632 151.877C208.787 151.877 212.696 149.389 215.36 144.413C218.082 139.437 219.443 132.236 219.443 122.811C219.443 113.445 218.139 106.186 215.533 101.034C212.985 95.8237 209.192 93.2187 204.153 93.2187C199.752 93.2187 197.551 95.3554 197.551 99.6289V145.467C197.551 147.808 198.015 149.477 198.941 150.472C199.926 151.409 201.489 151.877 203.632 151.877Z" fill="#2B30A3"/>
<path fill-rule="evenodd" clip-rule="evenodd" d="M160.034 80C160.034 35.8172 124.209 0 80.0172 0C35.8249 0 0 35.8172 0 80C0 124.183 35.8249 160 80.0172 160C124.209 160 160.034 124.183 160.034 80ZM70.015 80C70.015 115.108 72.8426 144.934 76.7756 155.705C76.0329 154.935 75.2303 153.874 74.3832 152.441C72.1654 148.69 70.0814 143.095 68.2979 135.962C64.7404 121.735 62.5134 101.949 62.5134 80C62.5134 58.0514 64.7404 38.2647 68.2979 24.0378C70.0814 16.9051 72.1654 11.3103 74.3832 7.55887C75.2302 6.12613 76.0329 5.06482 76.7756 4.29486C72.8425 15.0656 70.015 44.8918 70.015 80ZM85.6511 152.441C84.8041 153.874 84.0014 154.935 83.2587 155.705C87.1918 144.934 90.0193 115.108 90.0193 80C90.0193 44.8918 87.1918 15.0656 83.2587 4.29484C84.0014 5.06481 84.8041 6.12612 85.6511 7.55887C87.8689 11.3103 89.9529 16.9051 91.7365 24.0378C95.2939 38.2647 97.5209 58.0514 97.5209 80C97.5209 101.949 95.2939 121.735 91.7365 135.962C89.9529 143.095 87.8689 148.69 85.6511 152.441ZM72.7122 154.498C71.879 153.809 71.0436 152.997 70.2084 152.055C66.8936 148.317 63.7943 142.765 61.1407 135.691C55.8406 121.56 52.5113 101.871 52.5113 80C52.5113 58.129 55.8406 38.4399 61.1407 24.3093C63.7943 17.2347 66.8936 11.6832 70.2084 7.94531C71.0436 7.00345 71.879 6.19067 72.7122 5.50169C65.2771 17.1706 60.0129 46.1268 60.0129 80C60.0129 113.873 65.2771 142.829 72.7122 154.498ZM87.3221 154.498C88.1553 153.809 88.9907 152.997 89.826 152.055C93.1407 148.317 96.2401 142.765 98.8936 135.691C104.194 121.56 107.523 101.871 107.523 80C107.523 58.129 104.194 38.4399 98.8936 24.3093C96.2401 17.2347 93.1407 11.6832 89.826 7.94531C88.9907 7.00345 88.1553 6.19067 87.3221 5.50169C94.7573 17.1706 100.021 46.1268 100.021 80C100.021 113.873 94.7573 142.829 87.3221 154.498ZM53.9634 135.451C58.0248 143.572 62.8205 149.611 67.9747 153.297C57.3983 140.928 50.0107 112.764 50.0107 80C50.0107 47.2361 57.3983 19.0725 67.9747 6.70331C62.8205 10.3886 58.0248 16.4285 53.9634 24.5495C46.9309 38.6113 42.5091 58.2126 42.5091 80C42.5091 101.787 46.9309 121.389 53.9634 135.451ZM106.071 135.451C102.01 143.572 97.2139 149.611 92.0597 153.297C102.636 140.928 110.024 112.764 110.024 80C110.024 47.2361 102.636 19.0725 92.0597 6.70332C97.2139 10.3886 102.01 16.4285 106.071 24.5495C113.103 38.6113 117.525 58.2126 117.525 80C117.525 101.787 113.103 121.389 106.071 135.451ZM62.693 152.132C56.771 148.319 51.36 142.578 46.7747 135.244C38.0099 121.223 32.507 101.698 32.507 80C32.507 58.3022 38.0099 38.7772 46.7747 24.7565C51.36 17.4215 56.771 11.6811 62.693 7.86848C49.2719 20.78 40.0086 48.2269 40.0086 80C40.0086 111.773 49.272 139.22 62.693 152.132ZM97.3413 152.132C103.263 148.319 108.674 142.578 113.26 135.244C122.024 121.223 127.527 101.698 127.527 80C127.527 58.3022 122.024 38.7772 113.26 24.7565C108.674 17.4215 103.263 11.6811 97.3413 7.86847C110.762 20.78 120.026 48.2269 120.026 80C120.026 111.773 110.762 139.22 97.3413 152.132ZM39.5821 135.069C44.5883 141.742 50.4614 147.149 56.9275 150.982C40.9291 137.638 30.0064 110.859 30.0064 80C30.0064 49.1407 40.9291 22.3624 56.9275 9.01833C50.4614 12.8506 44.5883 18.2579 39.5821 24.9315C29.0766 38.9358 22.5048 58.3972 22.5048 80C22.5048 101.603 29.0766 121.064 39.5821 135.069ZM120.452 135.069C115.446 141.742 109.573 147.149 103.107 150.982C119.105 137.638 130.028 110.859 130.028 80C130.028 49.1407 119.105 22.3624 103.107 9.01831C109.573 12.8506 115.446 18.2579 120.452 24.9315C130.958 38.9358 137.53 58.3972 137.53 80C137.53 101.603 130.958 121.064 120.452 135.069ZM50.6648 149.794C28.1752 137.305 12.5027 110.899 12.5027 80C12.5027 49.1012 28.1752 22.6952 50.6647 10.2055C32.3668 23.9096 20.0043 50.0303 20.0043 80C20.0043 109.97 32.3668 136.09 50.6648 149.794ZM109.37 149.794C131.859 137.305 147.532 110.899 147.532 80C147.532 49.1012 131.859 22.6951 109.37 10.2055C127.667 23.9096 140.03 50.0303 140.03 80C140.03 109.97 127.667 136.09 109.37 149.794ZM2.50054 80C2.50054 109.871 19.4033 135.794 44.1678 148.732C23.7054 134.768 10.0021 109.212 10.0021 80C10.0021 50.7875 23.7054 25.2321 44.1678 11.268C19.4033 24.2057 2.50054 50.1293 2.50054 80ZM157.534 80C157.534 109.871 140.631 135.794 115.867 148.732C136.329 134.768 150.032 109.212 150.032 80C150.032 50.7875 136.329 25.2321 115.867 11.268C140.631 24.2057 157.534 50.1293 157.534 80ZM84.6085 136.258C86.4021 121.913 87.5188 102.021 87.5188 80C87.5188 57.9787 86.4021 38.0872 84.6085 23.7415C83.7095 16.5512 82.6519 10.8501 81.5125 6.99534C81.4303 6.71746 81.3486 6.45216 81.2674 6.1992V153.801C81.3486 153.548 81.4303 153.283 81.5125 153.005C82.6519 149.15 83.7095 143.449 84.6085 136.258ZM78.7669 6.19919V153.801C78.6857 153.548 78.604 153.283 78.5219 153.005C77.3824 149.15 76.3248 143.449 75.4258 136.258C73.6322 121.913 72.5156 102.021 72.5156 80C72.5156 57.9787 73.6322 38.0872 75.4258 23.7415C76.3248 16.5512 77.3824 10.8501 78.5219 6.99534C78.604 6.71746 78.6857 6.45216 78.7669 6.19919Z" fill="#2B30A3"/>
</svg>
