<svg width="32" height="32" viewBox="0 0 32 32" fill="none" xmlns="http://www.w3.org/2000/svg">
<rect width="32" height="32" rx="8" fill="white"/>
<path fill-rule="evenodd" clip-rule="evenodd" d="M28 16C28 9.37258 22.6274 4 16 4C9.37258 4 4 9.37258 4 16C4 22.6274 9.37258 28 16 28C22.6274 28 28 22.6274 28 16ZM14.5 16C14.5 21.2662 14.924 25.7402 15.5139 27.3558C15.4025 27.2403 15.2821 27.0811 15.1551 26.8662C14.8225 26.3035 14.51 25.4642 14.2425 24.3943C13.709 22.2603 13.375 19.2923 13.375 16C13.375 12.7077 13.709 9.7397 14.2425 7.60567C14.51 6.53577 14.8225 5.69655 15.1551 5.13383C15.2821 4.91892 15.4025 4.75972 15.5139 4.64423C14.924 6.25984 14.5 10.7338 14.5 16ZM16.8449 26.8662C16.7179 27.0811 16.5975 27.2403 16.4861 27.3558C17.076 25.7402 17.5 21.2662 17.5 16C17.5 10.7338 17.076 6.25985 16.4861 4.64423C16.5975 4.75972 16.7179 4.91892 16.8449 5.13383C17.1775 5.69655 17.49 6.53577 17.7575 7.60567C18.291 9.7397 18.625 12.7077 18.625 16C18.625 19.2923 18.291 22.2603 17.7575 24.3943C17.49 25.4642 17.1775 26.3035 16.8449 26.8662ZM14.9045 27.1747C14.7795 27.0714 14.6543 26.9495 14.529 26.8082C14.0319 26.2475 13.5671 25.4148 13.1691 24.3536C12.3743 22.234 11.875 19.2806 11.875 16C11.875 12.7194 12.3743 9.76599 13.1691 7.64639C13.5671 6.58521 14.0319 5.75248 14.529 5.1918C14.6543 5.05052 14.7795 4.9286 14.9045 4.82525C13.7895 6.5756 13 10.919 13 16C13 21.081 13.7895 25.4244 14.9045 27.1747ZM17.0955 27.1747C17.2205 27.0714 17.3457 26.9495 17.471 26.8082C17.9681 26.2475 18.4329 25.4148 18.8309 24.3536C19.6257 22.234 20.125 19.2806 20.125 16C20.125 12.7194 19.6257 9.76599 18.8309 7.64639C18.4329 6.58521 17.9681 5.75248 17.471 5.1918C17.3457 5.05052 17.2205 4.9286 17.0955 4.82525C18.2105 6.57559 19 10.919 19 16C19 21.081 18.2105 25.4244 17.0955 27.1747ZM12.0928 24.3176C12.7018 25.5357 13.421 26.4417 14.194 26.9945C12.6079 25.1391 11.5 20.9146 11.5 16C11.5 11.0854 12.6079 6.86087 14.194 5.0055C13.421 5.55829 12.7018 6.46427 12.0928 7.68242C11.0381 9.7917 10.375 12.7319 10.375 16C10.375 19.2681 11.0381 22.2083 12.0928 24.3176ZM19.9072 24.3176C19.2982 25.5357 18.579 26.4417 17.806 26.9945C19.3921 25.1391 20.5 20.9146 20.5 16C20.5 11.0854 19.3921 6.86087 17.806 5.0055C18.579 5.55829 19.2982 6.46427 19.9072 7.68242C20.9619 9.7917 21.625 12.7319 21.625 16C21.625 19.2681 20.9619 22.2083 19.9072 24.3176ZM13.4019 26.8197C12.5138 26.2478 11.7023 25.3868 11.0147 24.2865C9.70026 22.1834 8.875 19.2547 8.875 16C8.875 12.7453 9.70026 9.81658 11.0147 7.71347C11.7023 6.61323 12.5138 5.75217 13.4019 5.18027C11.3892 7.11701 10 11.234 10 16C10 20.766 11.3892 24.883 13.4019 26.8197ZM18.5981 26.8197C19.4862 26.2478 20.2976 25.3868 20.9853 24.2865C22.2997 22.1834 23.125 19.2547 23.125 16C23.125 12.7453 22.2997 9.81658 20.9853 7.71347C20.2976 6.61323 19.4862 5.75217 18.5981 5.18027C20.6108 7.11701 22 11.234 22 16C22 20.766 20.6108 24.883 18.5981 26.8197ZM9.93604 24.2603C10.6868 25.2613 11.5676 26.0724 12.5373 26.6472C10.1381 24.6456 8.5 20.6289 8.5 16C8.5 11.3711 10.1381 7.35436 12.5373 5.35275C11.5676 5.92759 10.6868 6.73868 9.93604 7.73972C8.36055 9.84037 7.375 12.7596 7.375 16C7.375 19.2404 8.36055 22.1596 9.93604 24.2603ZM22.064 24.2603C21.3132 25.2613 20.4324 26.0724 19.4627 26.6473C21.8619 24.6456 23.5 20.6289 23.5 16C23.5 11.3711 21.8619 7.35435 19.4627 5.35275C20.4324 5.92759 21.3132 6.73868 22.064 7.73972C23.6395 9.84037 24.625 12.7596 24.625 16C24.625 19.2404 23.6395 22.1596 22.064 24.2603ZM11.5981 26.4692C8.22537 24.5957 5.875 20.6348 5.875 16C5.875 11.3652 8.22537 7.40427 11.5981 5.53083C8.85398 7.58643 7 11.5045 7 16C7 20.4955 8.85398 24.4136 11.5981 26.4692ZM20.4019 26.4692C23.7746 24.5957 26.125 20.6348 26.125 16C26.125 11.3652 23.7746 7.40427 20.4019 5.53083C23.146 7.58643 25 11.5045 25 16C25 20.4955 23.146 24.4136 20.4019 26.4692ZM4.375 16C4.375 20.4806 6.90987 24.3692 10.6238 26.3098C7.55505 24.2152 5.5 20.3819 5.5 16C5.5 11.6181 7.55505 7.78481 10.6237 5.6902C6.90987 7.63085 4.375 11.5194 4.375 16ZM27.625 16C27.625 20.4806 25.0901 24.3692 21.3762 26.3098C24.4449 24.2152 26.5 20.3819 26.5 16C26.5 11.6181 24.4449 7.78481 21.3762 5.6902C25.0901 7.63085 27.625 11.5194 27.625 16ZM16.6886 24.4388C16.9575 22.2869 17.125 19.3032 17.125 16C17.125 12.6968 16.9575 9.71307 16.6886 7.56123C16.5537 6.48268 16.3951 5.62751 16.2242 5.0493C16.2119 5.00762 16.1997 4.96782 16.1875 4.92988V27.0701C16.1997 27.0322 16.2119 26.9924 16.2242 26.9507C16.3951 26.3725 16.5537 25.5173 16.6886 24.4388ZM15.8125 4.92988V27.0701C15.8003 27.0322 15.7881 26.9924 15.7758 26.9507C15.6049 26.3725 15.4463 25.5173 15.3114 24.4388C15.0425 22.2869 14.875 19.3032 14.875 16C14.875 12.6968 15.0425 9.71307 15.3114 7.56123C15.4463 6.48268 15.6049 5.62751 15.7758 5.0493C15.7881 5.00762 15.8003 4.96782 15.8125 4.92988Z" fill="#0504AA"/>
</svg>
